<?xml version="1.0" encoding="UTF-8"?>
<svg xmlns="http://www.w3.org/2000/svg" xmlns:xlink="http://www.w3.org/1999/xlink" width="224pt" height="101pt" viewBox="0 0 224 101" version="1.1">
<g id="surface1">
<path style="fill-rule:nonzero;fill:rgb(100%,100%,100%);fill-opacity:1;stroke-width:1;stroke-linecap:round;stroke-linejoin:round;stroke:rgb(0%,0%,0%);stroke-opacity:1;stroke-miterlimit:10;" d="M 72 166.61875 L 90 166.61875 L 90 184.61875 L 72 184.61875 Z M 72 166.61875 " transform="matrix(1.25,0,0,1.25,-66.25,-131.25)"/>
<path style=" stroke:none;fill-rule:nonzero;fill:rgb(0%,0%,0%);fill-opacity:1;" d="M 32.398438 84.40625 L 32.398438 83.449219 L 37.613281 83.449219 L 37.613281 84.210938 C 37.105469 84.757812 36.597656 85.492188 36.089844 86.398438 C 35.582031 87.296875 35.191406 88.230469 34.917969 89.191406 C 34.722656 89.855469 34.597656 90.59375 34.546875 91.398438 L 33.53125 91.398438 C 33.542969 90.765625 33.667969 90.003906 33.902344 89.113281 C 34.136719 88.214844 34.472656 87.351562 34.917969 86.515625 C 35.371094 85.6875 35.847656 84.984375 36.34375 84.40625 Z M 32.398438 84.40625 "/>
<path style="fill-rule:nonzero;fill:rgb(69.803922%,85.098039%,100%);fill-opacity:1;stroke-width:1;stroke-linecap:round;stroke-linejoin:round;stroke:rgb(0%,0%,0%);stroke-opacity:1;stroke-miterlimit:10;" d="M 72 130.61875 L 90 130.61875 L 90 148.61875 L 72 148.61875 Z M 72 130.61875 " transform="matrix(1.25,0,0,1.25,-66.25,-131.25)"/>
<path style=" stroke:none;fill-rule:nonzero;fill:rgb(0%,0%,0%);fill-opacity:1;" d="M 36.070312 46.398438 L 35.074219 46.398438 L 35.074219 40.089844 C 34.839844 40.324219 34.527344 40.558594 34.136719 40.792969 C 33.746094 41.019531 33.398438 41.179688 33.101562 41.28125 L 33.101562 40.324219 C 33.648438 40.082031 34.128906 39.773438 34.546875 39.40625 C 34.960938 39.03125 35.253906 38.664062 35.425781 38.3125 L 36.070312 38.3125 Z M 36.070312 46.398438 "/>
<path style="fill-rule:nonzero;fill:rgb(69.803922%,85.098039%,100%);fill-opacity:1;stroke-width:1;stroke-linecap:round;stroke-linejoin:round;stroke:rgb(0%,0%,0%);stroke-opacity:1;stroke-miterlimit:10;" d="M 72 148.61875 L 90 148.61875 L 90 166.61875 L 72 166.61875 Z M 72 148.61875 " transform="matrix(1.25,0,0,1.25,-66.25,-131.25)"/>
<path style=" stroke:none;fill-rule:nonzero;fill:rgb(0%,0%,0%);fill-opacity:1;" d="M 35.503906 68.898438 L 35.503906 66.964844 L 32.007812 66.964844 L 32.007812 66.066406 L 35.679688 60.851562 L 36.5 60.851562 L 36.5 66.066406 L 37.59375 66.066406 L 37.59375 66.964844 L 36.5 66.964844 L 36.5 68.898438 Z M 35.503906 66.066406 L 35.503906 62.433594 L 32.984375 66.066406 Z M 35.503906 66.066406 "/>
<path style="fill-rule:nonzero;fill:rgb(100%,100%,100%);fill-opacity:1;stroke-width:1;stroke-linecap:round;stroke-linejoin:round;stroke:rgb(0%,0%,0%);stroke-opacity:1;stroke-miterlimit:10;" d="M 54 166.61875 L 72 166.61875 L 72 184.61875 L 54 184.61875 Z M 54 166.61875 " transform="matrix(1.25,0,0,1.25,-66.25,-131.25)"/>
<path style=" stroke:none;fill-rule:nonzero;fill:rgb(0%,0%,0%);fill-opacity:1;" d="M 14.976562 85.324219 L 13.980469 85.402344 C 13.902344 85.011719 13.777344 84.730469 13.609375 84.542969 C 13.347656 84.269531 13.023438 84.132812 12.632812 84.132812 C 12.304688 84.132812 12.027344 84.222656 11.792969 84.386719 C 11.480469 84.621094 11.230469 84.953125 11.050781 85.382812 C 10.878906 85.8125 10.789062 86.433594 10.777344 87.238281 C 11.011719 86.886719 11.296875 86.628906 11.636719 86.457031 C 11.988281 86.277344 12.351562 86.183594 12.730469 86.183594 C 13.394531 86.183594 13.953125 86.429688 14.410156 86.90625 C 14.878906 87.390625 15.113281 88.015625 15.113281 88.78125 C 15.113281 89.289062 15 89.769531 14.78125 90.207031 C 14.558594 90.636719 14.257812 90.96875 13.882812 91.203125 C 13.503906 91.421875 13.074219 91.535156 12.59375 91.535156 C 11.773438 91.535156 11.101562 91.238281 10.582031 90.636719 C 10.058594 90.027344 9.800781 89.027344 9.800781 87.628906 C 9.800781 86.082031 10.085938 84.949219 10.660156 84.230469 C 11.152344 83.621094 11.832031 83.3125 12.691406 83.3125 C 13.316406 83.3125 13.828125 83.5 14.234375 83.859375 C 14.636719 84.210938 14.882812 84.699219 14.976562 85.324219 Z M 10.933594 88.78125 C 10.933594 89.132812 11.003906 89.464844 11.148438 89.777344 C 11.289062 90.082031 11.492188 90.316406 11.753906 90.480469 C 12.011719 90.636719 12.285156 90.714844 12.574219 90.714844 C 12.988281 90.714844 13.347656 90.554688 13.648438 90.226562 C 13.945312 89.890625 14.097656 89.425781 14.097656 88.839844 C 14.097656 88.285156 13.945312 87.84375 13.648438 87.53125 C 13.359375 87.210938 12.988281 87.042969 12.535156 87.042969 C 12.089844 87.042969 11.714844 87.210938 11.402344 87.53125 C 11.089844 87.84375 10.933594 88.265625 10.933594 88.78125 Z M 10.933594 88.78125 "/>
<path style="fill-rule:nonzero;fill:rgb(100%,100%,100%);fill-opacity:1;stroke-width:1;stroke-linecap:round;stroke-linejoin:round;stroke:rgb(0%,0%,0%);stroke-opacity:1;stroke-miterlimit:10;" d="M 90 148.61875 L 108 148.61875 L 108 166.61875 L 90 166.61875 Z M 90 148.61875 " transform="matrix(1.25,0,0,1.25,-66.25,-131.25)"/>
<path style=" stroke:none;fill-rule:nonzero;fill:rgb(0%,0%,0%);fill-opacity:1;" d="M 54.839844 66.789062 L 55.875 66.691406 C 55.953125 67.199219 56.128906 67.585938 56.402344 67.84375 C 56.6875 68.09375 57.027344 68.214844 57.417969 68.214844 C 57.898438 68.214844 58.300781 68.039062 58.628906 67.6875 C 58.964844 67.328125 59.136719 66.847656 59.136719 66.261719 C 59.136719 65.691406 58.972656 65.242188 58.648438 64.914062 C 58.335938 64.59375 57.925781 64.425781 57.417969 64.425781 C 57.089844 64.425781 56.796875 64.503906 56.539062 64.660156 C 56.289062 64.808594 56.089844 64.988281 55.933594 65.207031 L 55.015625 65.089844 L 55.796875 60.949219 L 59.800781 60.949219 L 59.800781 61.90625 L 56.578125 61.90625 L 56.148438 64.054688 C 56.628906 63.734375 57.136719 63.566406 57.671875 63.566406 C 58.375 63.566406 58.964844 63.8125 59.449219 64.289062 C 59.929688 64.773438 60.171875 65.398438 60.171875 66.164062 C 60.171875 66.898438 59.960938 67.527344 59.546875 68.058594 C 59.023438 68.714844 58.316406 69.035156 57.417969 69.035156 C 56.6875 69.035156 56.089844 68.835938 55.621094 68.429688 C 55.164062 68.015625 54.902344 67.46875 54.839844 66.789062 Z M 54.839844 66.789062 "/>
<path style="fill-rule:nonzero;fill:rgb(69.803922%,85.098039%,100%);fill-opacity:1;stroke-width:1;stroke-linecap:round;stroke-linejoin:round;stroke:rgb(0%,0%,0%);stroke-opacity:1;stroke-miterlimit:10;" d="M 54 148.61875 L 72 148.61875 L 72 166.61875 L 54 166.61875 Z M 54 148.61875 " transform="matrix(1.25,0,0,1.25,-66.25,-131.25)"/>
<path style=" stroke:none;fill-rule:nonzero;fill:rgb(0%,0%,0%);fill-opacity:1;" d="M 9.839844 66.769531 L 10.835938 66.632812 C 10.953125 67.195312 11.140625 67.601562 11.402344 67.84375 C 11.675781 68.09375 12.011719 68.214844 12.417969 68.214844 C 12.871094 68.214844 13.257812 68.058594 13.570312 67.746094 C 13.894531 67.425781 14.058594 67.019531 14.058594 66.535156 C 14.058594 66.082031 13.90625 65.710938 13.609375 65.421875 C 13.320312 65.125 12.949219 64.972656 12.496094 64.972656 C 12.300781 64.972656 12.066406 65.011719 11.792969 65.089844 L 11.910156 64.210938 C 11.972656 64.226562 12.027344 64.230469 12.066406 64.230469 C 12.480469 64.230469 12.859375 64.125 13.199219 63.898438 C 13.535156 63.679688 13.707031 63.34375 13.707031 62.882812 C 13.707031 62.523438 13.582031 62.21875 13.335938 61.984375 C 13.085938 61.75 12.769531 61.632812 12.378906 61.632812 C 12 61.632812 11.679688 61.761719 11.421875 62.003906 C 11.171875 62.238281 11.011719 62.601562 10.933594 63.078125 L 9.9375 62.902344 C 10.066406 62.238281 10.339844 61.726562 10.757812 61.359375 C 11.1875 61 11.71875 60.8125 12.359375 60.8125 C 12.800781 60.8125 13.203125 60.910156 13.570312 61.105469 C 13.945312 61.292969 14.234375 61.546875 14.429688 61.867188 C 14.625 62.195312 14.722656 62.542969 14.722656 62.902344 C 14.722656 63.253906 14.625 63.578125 14.429688 63.859375 C 14.246094 64.148438 13.972656 64.378906 13.609375 64.542969 C 14.089844 64.652344 14.460938 64.875 14.722656 65.226562 C 14.980469 65.570312 15.113281 66 15.113281 66.515625 C 15.113281 67.21875 14.851562 67.820312 14.332031 68.3125 C 13.824219 68.796875 13.179688 69.035156 12.398438 69.035156 C 11.695312 69.035156 11.109375 68.832031 10.640625 68.410156 C 10.171875 67.996094 9.902344 67.449219 9.839844 66.769531 Z M 9.839844 66.769531 "/>
<path style="fill-rule:nonzero;fill:rgb(100%,100%,100%);fill-opacity:1;stroke-width:1;stroke-linecap:round;stroke-linejoin:round;stroke:rgb(0%,0%,0%);stroke-opacity:1;stroke-miterlimit:10;" d="M 90 166.61875 L 108 166.61875 L 108 184.61875 L 90 184.61875 Z M 90 166.61875 " transform="matrix(1.25,0,0,1.25,-66.25,-131.25)"/>
<path style=" stroke:none;fill-rule:nonzero;fill:rgb(0%,0%,0%);fill-opacity:1;" d="M 56.363281 87.023438 C 55.945312 86.882812 55.640625 86.671875 55.445312 86.398438 C 55.25 86.117188 55.152344 85.773438 55.152344 85.382812 C 55.152344 84.796875 55.359375 84.308594 55.777344 83.917969 C 56.207031 83.519531 56.765625 83.3125 57.457031 83.3125 C 58.160156 83.3125 58.726562 83.523438 59.15625 83.9375 C 59.585938 84.34375 59.800781 84.835938 59.800781 85.421875 C 59.800781 85.789062 59.703125 86.117188 59.507812 86.398438 C 59.3125 86.671875 59.011719 86.882812 58.609375 87.023438 C 59.101562 87.195312 59.480469 87.464844 59.742188 87.824219 C 60 88.175781 60.132812 88.601562 60.132812 89.09375 C 60.132812 89.789062 59.882812 90.363281 59.390625 90.832031 C 58.90625 91.300781 58.269531 91.535156 57.476562 91.535156 C 56.679688 91.535156 56.035156 91.300781 55.542969 90.832031 C 55.058594 90.363281 54.820312 89.777344 54.820312 89.074219 C 54.820312 88.558594 54.949219 88.117188 55.210938 87.765625 C 55.484375 87.40625 55.867188 87.15625 56.363281 87.023438 Z M 56.167969 85.363281 C 56.167969 85.746094 56.285156 86.058594 56.519531 86.300781 C 56.765625 86.535156 57.085938 86.652344 57.476562 86.652344 C 57.867188 86.652344 58.179688 86.535156 58.414062 86.300781 C 58.660156 86.058594 58.785156 85.753906 58.785156 85.402344 C 58.785156 85.050781 58.660156 84.753906 58.414062 84.503906 C 58.164062 84.261719 57.851562 84.132812 57.476562 84.132812 C 57.097656 84.132812 56.785156 84.261719 56.539062 84.503906 C 56.289062 84.738281 56.167969 85.027344 56.167969 85.363281 Z M 55.835938 89.074219 C 55.835938 89.363281 55.898438 89.636719 56.03125 89.894531 C 56.171875 90.160156 56.375 90.359375 56.636719 90.5 C 56.894531 90.648438 57.183594 90.714844 57.496094 90.714844 C 57.964844 90.714844 58.347656 90.570312 58.648438 90.265625 C 58.960938 89.96875 59.117188 89.582031 59.117188 89.113281 C 59.117188 88.636719 58.960938 88.234375 58.648438 87.921875 C 58.335938 87.609375 57.9375 87.453125 57.457031 87.453125 C 56.988281 87.453125 56.597656 87.609375 56.285156 87.921875 C 55.984375 88.234375 55.835938 88.621094 55.835938 89.074219 Z M 55.835938 89.074219 "/>
<path style="fill-rule:nonzero;fill:rgb(100%,100%,100%);fill-opacity:1;stroke-width:1;stroke-linecap:round;stroke-linejoin:round;stroke:rgb(0%,0%,0%);stroke-opacity:1;stroke-miterlimit:10;" d="M 90 130.61875 L 108 130.61875 L 108 148.61875 L 90 148.61875 Z M 90 130.61875 " transform="matrix(1.25,0,0,1.25,-66.25,-131.25)"/>
<path style=" stroke:none;fill-rule:nonzero;fill:rgb(0%,0%,0%);fill-opacity:1;" d="M 60.035156 45.441406 L 60.035156 46.398438 L 54.703125 46.398438 C 54.703125 46.164062 54.742188 45.941406 54.820312 45.714844 C 54.960938 45.355469 55.183594 44.992188 55.484375 44.640625 C 55.78125 44.289062 56.210938 43.890625 56.773438 43.429688 C 57.644531 42.703125 58.230469 42.132812 58.53125 41.710938 C 58.84375 41.296875 59 40.902344 59 40.519531 C 59 40.128906 58.855469 39.808594 58.570312 39.542969 C 58.296875 39.269531 57.9375 39.132812 57.496094 39.132812 C 57.011719 39.132812 56.628906 39.28125 56.34375 39.5625 C 56.054688 39.851562 55.914062 40.246094 55.914062 40.753906 L 54.898438 40.636719 C 54.960938 39.886719 55.222656 39.308594 55.679688 38.917969 C 56.132812 38.519531 56.746094 38.3125 57.515625 38.3125 C 58.28125 38.3125 58.886719 38.527344 59.332031 38.957031 C 59.785156 39.386719 60.015625 39.914062 60.015625 40.539062 C 60.015625 40.867188 59.949219 41.183594 59.820312 41.496094 C 59.6875 41.808594 59.46875 42.140625 59.15625 42.492188 C 58.855469 42.835938 58.355469 43.304688 57.652344 43.898438 C 57.050781 44.398438 56.667969 44.734375 56.5 44.914062 C 56.328125 45.101562 56.191406 45.277344 56.089844 45.441406 Z M 60.035156 45.441406 "/>
<path style="fill-rule:nonzero;fill:rgb(69.803922%,85.098039%,100%);fill-opacity:1;stroke-width:1;stroke-linecap:round;stroke-linejoin:round;stroke:rgb(0%,0%,0%);stroke-opacity:1;stroke-miterlimit:10;" d="M 54 130.61875 L 72 130.61875 L 72 148.61875 L 54 148.61875 Z M 54 130.61875 " transform="matrix(1.25,0,0,1.25,-66.25,-131.25)"/>
<path style=" stroke:none;fill-rule:nonzero;fill:rgb(0%,0%,0%);fill-opacity:1;" d="M 9.839844 42.433594 C 9.839844 41.488281 9.9375 40.714844 10.132812 40.128906 C 10.328125 39.542969 10.613281 39.09375 10.992188 38.78125 C 11.382812 38.46875 11.871094 38.3125 12.457031 38.3125 C 12.898438 38.3125 13.28125 38.40625 13.609375 38.585938 C 13.933594 38.757812 14.199219 39.007812 14.410156 39.328125 C 14.617188 39.65625 14.78125 40.050781 14.898438 40.519531 C 15.027344 40.988281 15.09375 41.628906 15.09375 42.433594 C 15.09375 43.371094 14.996094 44.132812 14.800781 44.71875 C 14.605469 45.296875 14.3125 45.746094 13.921875 46.066406 C 13.542969 46.378906 13.054688 46.535156 12.457031 46.535156 C 11.6875 46.535156 11.082031 46.257812 10.640625 45.695312 C 10.105469 45.03125 9.839844 43.949219 9.839844 42.433594 Z M 10.855469 42.433594 C 10.855469 43.753906 11.003906 44.632812 11.304688 45.070312 C 11.617188 45.5 12 45.714844 12.457031 45.714844 C 12.910156 45.714844 13.296875 45.5 13.609375 45.070312 C 13.921875 44.632812 14.078125 43.753906 14.078125 42.433594 C 14.078125 41.105469 13.921875 40.226562 13.609375 39.796875 C 13.296875 39.359375 12.910156 39.132812 12.457031 39.132812 C 12 39.132812 11.636719 39.324219 11.363281 39.699219 C 11.023438 40.199219 10.855469 41.105469 10.855469 42.433594 Z M 10.855469 42.433594 "/>
<path style="fill-rule:nonzero;fill:rgb(100%,100%,100%);fill-opacity:1;stroke-width:1;stroke-linecap:round;stroke-linejoin:round;stroke:rgb(0%,0%,0%);stroke-opacity:1;stroke-miterlimit:10;" d="M 194.4125 157.61875 L 212.4125 157.61875 L 212.4125 175.61875 L 194.4125 175.61875 Z M 194.4125 157.61875 " transform="matrix(1.25,0,0,1.25,-66.25,-131.25)"/>
<path style=" stroke:none;fill-rule:nonzero;fill:rgb(0%,0%,0%);fill-opacity:1;" d="M 185.417969 73.15625 L 185.417969 72.199219 L 190.632812 72.199219 L 190.632812 72.960938 C 190.125 73.507812 189.617188 74.242188 189.109375 75.148438 C 188.601562 76.046875 188.210938 76.980469 187.9375 77.941406 C 187.742188 78.605469 187.613281 79.34375 187.566406 80.148438 L 186.550781 80.148438 C 186.558594 79.515625 186.6875 78.753906 186.921875 77.863281 C 187.15625 76.964844 187.492188 76.101562 187.9375 75.265625 C 188.390625 74.4375 188.863281 73.734375 189.363281 73.15625 Z M 185.417969 73.15625 "/>
<path style="fill-rule:nonzero;fill:rgb(100%,100%,100%);fill-opacity:1;stroke-width:1;stroke-linecap:round;stroke-linejoin:round;stroke:rgb(0%,0%,0%);stroke-opacity:1;stroke-miterlimit:10;" d="M 212.4125 157.61875 L 230.4125 157.61875 L 230.4125 175.61875 L 212.4125 175.61875 Z M 212.4125 157.61875 " transform="matrix(1.25,0,0,1.25,-66.25,-131.25)"/>
<path style=" stroke:none;fill-rule:nonzero;fill:rgb(0%,0%,0%);fill-opacity:1;" d="M 209.382812 75.773438 C 208.960938 75.632812 208.660156 75.421875 208.464844 75.148438 C 208.269531 74.867188 208.171875 74.523438 208.171875 74.132812 C 208.171875 73.546875 208.375 73.058594 208.796875 72.667969 C 209.226562 72.269531 209.78125 72.0625 210.476562 72.0625 C 211.179688 72.0625 211.746094 72.273438 212.175781 72.6875 C 212.605469 73.09375 212.820312 73.585938 212.820312 74.171875 C 212.820312 74.539062 212.722656 74.867188 212.527344 75.148438 C 212.332031 75.421875 212.027344 75.632812 211.628906 75.773438 C 212.121094 75.945312 212.496094 76.214844 212.761719 76.574219 C 213.019531 76.925781 213.152344 77.351562 213.152344 77.84375 C 213.152344 78.539062 212.902344 79.113281 212.410156 79.582031 C 211.925781 80.050781 211.285156 80.285156 210.496094 80.285156 C 209.699219 80.285156 209.054688 80.050781 208.5625 79.582031 C 208.078125 79.113281 207.839844 78.527344 207.839844 77.824219 C 207.839844 77.308594 207.964844 76.867188 208.230469 76.515625 C 208.503906 76.15625 208.882812 75.90625 209.382812 75.773438 Z M 209.1875 74.113281 C 209.1875 74.496094 209.304688 74.808594 209.539062 75.050781 C 209.78125 75.285156 210.105469 75.402344 210.496094 75.402344 C 210.886719 75.402344 211.199219 75.285156 211.433594 75.050781 C 211.675781 74.808594 211.804688 74.503906 211.804688 74.152344 C 211.804688 73.800781 211.675781 73.503906 211.433594 73.253906 C 211.183594 73.011719 210.871094 72.882812 210.496094 72.882812 C 210.113281 72.882812 209.800781 73.011719 209.558594 73.253906 C 209.308594 73.488281 209.1875 73.777344 209.1875 74.113281 Z M 208.855469 77.824219 C 208.855469 78.113281 208.917969 78.386719 209.050781 78.644531 C 209.191406 78.910156 209.390625 79.109375 209.65625 79.25 C 209.914062 79.398438 210.203125 79.464844 210.515625 79.464844 C 210.984375 79.464844 211.363281 79.320312 211.667969 79.015625 C 211.980469 78.71875 212.136719 78.332031 212.136719 77.863281 C 212.136719 77.386719 211.980469 76.984375 211.667969 76.671875 C 211.355469 76.359375 210.953125 76.203125 210.476562 76.203125 C 210.007812 76.203125 209.617188 76.359375 209.304688 76.671875 C 209 76.984375 208.855469 77.371094 208.855469 77.824219 Z M 208.855469 77.824219 "/>
<path style="fill-rule:nonzero;fill:rgb(100%,100%,100%);fill-opacity:1;stroke-width:1;stroke-linecap:round;stroke-linejoin:round;stroke:rgb(0%,0%,0%);stroke-opacity:1;stroke-miterlimit:10;" d="M 212.4125 139.61875 L 230.4125 139.61875 L 230.4125 157.61875 L 212.4125 157.61875 Z M 212.4125 139.61875 " transform="matrix(1.25,0,0,1.25,-66.25,-131.25)"/>
<path style=" stroke:none;fill-rule:nonzero;fill:rgb(0%,0%,0%);fill-opacity:1;" d="M 207.859375 55.539062 L 208.894531 55.441406 C 208.972656 55.949219 209.148438 56.335938 209.421875 56.59375 C 209.703125 56.84375 210.046875 56.964844 210.4375 56.964844 C 210.914062 56.964844 211.320312 56.789062 211.648438 56.4375 C 211.984375 56.078125 212.15625 55.597656 212.15625 55.011719 C 212.15625 54.441406 211.988281 53.992188 211.667969 53.664062 C 211.355469 53.34375 210.945312 53.175781 210.4375 53.175781 C 210.109375 53.175781 209.816406 53.253906 209.558594 53.410156 C 209.308594 53.558594 209.109375 53.738281 208.953125 53.957031 L 208.035156 53.839844 L 208.816406 49.699219 L 212.820312 49.699219 L 212.820312 50.65625 L 209.597656 50.65625 L 209.167969 52.804688 C 209.644531 52.484375 210.152344 52.316406 210.691406 52.316406 C 211.394531 52.316406 211.984375 52.5625 212.46875 53.039062 C 212.945312 53.523438 213.191406 54.148438 213.191406 54.914062 C 213.191406 55.648438 212.980469 56.277344 212.566406 56.808594 C 212.042969 57.464844 211.335938 57.785156 210.4375 57.785156 C 209.703125 57.785156 209.109375 57.585938 208.640625 57.179688 C 208.179688 56.765625 207.921875 56.21875 207.859375 55.539062 Z M 207.859375 55.539062 "/>
<path style="fill-rule:nonzero;fill:rgb(69.803922%,85.098039%,100%);fill-opacity:1;stroke-width:1;stroke-linecap:round;stroke-linejoin:round;stroke:rgb(0%,0%,0%);stroke-opacity:1;stroke-miterlimit:10;" d="M 194.4125 139.61875 L 212.4125 139.61875 L 212.4125 157.61875 L 194.4125 157.61875 Z M 194.4125 139.61875 " transform="matrix(1.25,0,0,1.25,-66.25,-131.25)"/>
<path style=" stroke:none;fill-rule:nonzero;fill:rgb(0%,0%,0%);fill-opacity:1;" d="M 188.523438 57.648438 L 188.523438 55.714844 L 185.027344 55.714844 L 185.027344 54.816406 L 188.699219 49.601562 L 189.519531 49.601562 L 189.519531 54.816406 L 190.613281 54.816406 L 190.613281 55.714844 L 189.519531 55.714844 L 189.519531 57.648438 Z M 188.523438 54.816406 L 188.523438 51.183594 L 186.003906 54.816406 Z M 188.523438 54.816406 "/>
<path style="fill-rule:nonzero;fill:rgb(100%,100%,100%);fill-opacity:1;stroke-width:1;stroke-linecap:round;stroke-linejoin:round;stroke:rgb(0%,0%,0%);stroke-opacity:1;stroke-miterlimit:10;" d="M 124.5 144 L 178.5 144 L 178.5 171 L 124.5 171 Z M 124.5 144 " transform="matrix(1.25,0,0,1.25,-66.25,-131.25)"/>
<path style=" stroke:none;fill-rule:nonzero;fill:rgb(0%,0%,0%);fill-opacity:1;" d="M 104.40625 61.800781 L 104.40625 62.757812 L 99.074219 62.757812 C 99.074219 62.523438 99.113281 62.296875 99.191406 62.074219 C 99.332031 61.710938 99.550781 61.351562 99.855469 61 C 100.152344 60.648438 100.582031 60.246094 101.144531 59.789062 C 102.011719 59.0625 102.597656 58.488281 102.902344 58.070312 C 103.214844 57.65625 103.371094 57.257812 103.371094 56.878906 C 103.371094 56.488281 103.222656 56.164062 102.941406 55.902344 C 102.667969 55.628906 102.304688 55.492188 101.867188 55.492188 C 101.382812 55.492188 100.996094 55.636719 100.714844 55.921875 C 100.425781 56.210938 100.285156 56.605469 100.285156 57.113281 L 99.269531 56.996094 C 99.332031 56.242188 99.589844 55.667969 100.050781 55.277344 C 100.503906 54.875 101.113281 54.671875 101.886719 54.671875 C 102.652344 54.671875 103.257812 54.886719 103.703125 55.316406 C 104.15625 55.746094 104.386719 56.273438 104.386719 56.898438 C 104.386719 57.226562 104.316406 57.542969 104.191406 57.855469 C 104.058594 58.167969 103.839844 58.5 103.527344 58.851562 C 103.222656 59.191406 102.726562 59.660156 102.023438 60.257812 C 101.421875 60.753906 101.035156 61.09375 100.871094 61.273438 C 100.699219 61.457031 100.5625 61.632812 100.460938 61.800781 Z M 104.40625 61.800781 "/>
<path style=" stroke:none;fill-rule:nonzero;fill:rgb(0%,0%,0%);fill-opacity:1;" d="M 108.203125 62.757812 L 110.332031 59.730469 L 108.359375 56.917969 L 109.609375 56.917969 L 110.507812 58.285156 C 110.664062 58.546875 110.789062 58.769531 110.898438 58.949219 C 111.0625 58.703125 111.214844 58.488281 111.347656 58.304688 L 112.324219 56.917969 L 113.515625 56.917969 L 111.503906 59.671875 L 113.671875 62.757812 L 112.460938 62.757812 L 111.25 60.941406 L 110.9375 60.453125 L 109.414062 62.757812 Z M 108.203125 62.757812 "/>
<path style=" stroke:none;fill-rule:nonzero;fill:rgb(0%,0%,0%);fill-opacity:1;" d="M 122.539062 61.800781 L 122.539062 62.757812 L 117.207031 62.757812 C 117.207031 62.523438 117.246094 62.296875 117.324219 62.074219 C 117.464844 61.710938 117.683594 61.351562 117.988281 61 C 118.285156 60.648438 118.714844 60.246094 119.277344 59.789062 C 120.144531 59.0625 120.730469 58.488281 121.035156 58.070312 C 121.347656 57.65625 121.503906 57.257812 121.503906 56.878906 C 121.503906 56.488281 121.355469 56.164062 121.074219 55.902344 C 120.800781 55.628906 120.4375 55.492188 120 55.492188 C 119.515625 55.492188 119.128906 55.636719 118.847656 55.921875 C 118.558594 56.210938 118.417969 56.605469 118.417969 57.113281 L 117.402344 56.996094 C 117.464844 56.242188 117.722656 55.667969 118.183594 55.277344 C 118.636719 54.875 119.246094 54.671875 120.019531 54.671875 C 120.785156 54.671875 121.390625 54.886719 121.835938 55.316406 C 122.289062 55.746094 122.519531 56.273438 122.519531 56.898438 C 122.519531 57.226562 122.449219 57.542969 122.324219 57.855469 C 122.191406 58.167969 121.972656 58.5 121.660156 58.851562 C 121.355469 59.191406 120.859375 59.660156 120.15625 60.257812 C 119.554688 60.753906 119.167969 61.09375 119.003906 61.273438 C 118.832031 61.457031 118.695312 61.632812 118.59375 61.800781 Z M 122.539062 61.800781 "/>
<path style=" stroke:none;fill-rule:nonzero;fill:rgb(0%,0%,0%);fill-opacity:1;" d="M 127.097656 62.757812 L 127.097656 54.710938 L 128.699219 54.710938 L 130.59375 60.414062 C 130.773438 60.9375 130.90625 61.332031 130.984375 61.605469 C 131.070312 61.308594 131.21875 60.878906 131.414062 60.316406 L 133.347656 54.710938 L 134.773438 54.710938 L 134.773438 62.757812 L 133.757812 62.757812 L 133.757812 56.019531 L 131.414062 62.757812 L 130.457031 62.757812 L 128.113281 55.902344 L 128.113281 62.757812 Z M 127.097656 62.757812 "/>
<path style=" stroke:none;fill-rule:nonzero;fill:rgb(0%,0%,0%);fill-opacity:1;" d="M 140.179688 62.035156 C 139.8125 62.347656 139.460938 62.570312 139.125 62.699219 C 138.78125 62.824219 138.421875 62.894531 138.03125 62.894531 C 137.390625 62.894531 136.898438 62.738281 136.546875 62.425781 C 136.203125 62.113281 136.039062 61.710938 136.039062 61.214844 C 136.039062 60.929688 136.101562 60.667969 136.234375 60.433594 C 136.359375 60.199219 136.53125 60.011719 136.742188 59.867188 C 136.945312 59.726562 137.179688 59.613281 137.445312 59.535156 C 137.640625 59.496094 137.933594 59.453125 138.324219 59.398438 C 139.128906 59.308594 139.71875 59.191406 140.101562 59.046875 C 140.101562 58.917969 140.101562 58.832031 140.101562 58.792969 C 140.101562 58.390625 140.007812 58.109375 139.828125 57.953125 C 139.5625 57.71875 139.1875 57.601562 138.695312 57.601562 C 138.226562 57.601562 137.878906 57.6875 137.660156 57.855469 C 137.433594 58.011719 137.273438 58.300781 137.171875 58.714844 L 136.214844 58.597656 C 136.292969 58.183594 136.429688 57.851562 136.625 57.601562 C 136.828125 57.34375 137.121094 57.148438 137.503906 57.015625 C 137.894531 56.875 138.332031 56.800781 138.832031 56.800781 C 139.339844 56.800781 139.738281 56.859375 140.042969 56.976562 C 140.355469 57.09375 140.578125 57.246094 140.726562 57.425781 C 140.882812 57.597656 140.984375 57.816406 141.039062 58.089844 C 141.078125 58.261719 141.097656 58.558594 141.097656 58.988281 L 141.097656 60.316406 C 141.097656 61.230469 141.117188 61.808594 141.15625 62.054688 C 141.195312 62.304688 141.277344 62.539062 141.410156 62.757812 L 140.375 62.757812 C 140.265625 62.550781 140.203125 62.308594 140.179688 62.035156 Z M 140.101562 59.828125 C 139.734375 59.972656 139.191406 60.097656 138.480469 60.199219 C 138.074219 60.265625 137.785156 60.335938 137.621094 60.414062 C 137.449219 60.480469 137.316406 60.585938 137.230469 60.726562 C 137.136719 60.871094 137.09375 61.027344 137.09375 61.195312 C 137.09375 61.457031 137.191406 61.679688 137.386719 61.859375 C 137.582031 62.03125 137.875 62.113281 138.265625 62.113281 C 138.640625 62.113281 138.976562 62.03125 139.28125 61.859375 C 139.578125 61.691406 139.796875 61.464844 139.945312 61.175781 C 140.046875 60.957031 140.101562 60.628906 140.101562 60.199219 Z M 140.101562 59.828125 "/>
<path style=" stroke:none;fill-rule:nonzero;fill:rgb(0%,0%,0%);fill-opacity:1;" d="M 141.960938 62.757812 L 144.089844 59.730469 L 142.117188 56.917969 L 143.367188 56.917969 L 144.265625 58.285156 C 144.421875 58.546875 144.550781 58.769531 144.65625 58.949219 C 144.824219 58.703125 144.976562 58.488281 145.105469 58.304688 L 146.082031 56.917969 L 147.273438 56.917969 L 145.261719 59.671875 L 147.429688 62.757812 L 146.21875 62.757812 L 145.007812 60.941406 L 144.695312 60.453125 L 143.171875 62.757812 Z M 141.960938 62.757812 "/>
<path style=" stroke:none;fill-rule:nonzero;fill:rgb(0%,0%,0%);fill-opacity:1;" d="M 105.21875 75.625 L 105.21875 67.578125 L 108.265625 67.578125 C 108.800781 67.578125 109.210938 67.609375 109.496094 67.65625 C 109.886719 67.726562 110.210938 67.847656 110.472656 68.027344 C 110.746094 68.210938 110.960938 68.472656 111.117188 68.808594 C 111.285156 69.136719 111.371094 69.5 111.371094 69.902344 C 111.371094 70.59375 111.148438 71.171875 110.707031 71.640625 C 110.277344 72.109375 109.496094 72.34375 108.363281 72.34375 L 106.292969 72.34375 L 106.292969 75.625 Z M 106.292969 71.40625 L 108.382812 71.40625 C 109.058594 71.40625 109.542969 71.28125 109.828125 71.015625 C 110.128906 70.757812 110.277344 70.398438 110.277344 69.941406 C 110.277344 69.605469 110.191406 69.316406 110.023438 69.082031 C 109.855469 68.835938 109.625 68.671875 109.339844 68.59375 C 109.171875 68.546875 108.839844 68.515625 108.34375 68.515625 L 106.292969 68.515625 Z M 106.292969 71.40625 "/>
<path style=" stroke:none;fill-rule:nonzero;fill:rgb(0%,0%,0%);fill-opacity:1;" d="M 112.234375 72.714844 C 112.234375 71.636719 112.53125 70.835938 113.132812 70.3125 C 113.640625 69.882812 114.25 69.667969 114.96875 69.667969 C 115.773438 69.667969 116.433594 69.929688 116.941406 70.449219 C 117.449219 70.972656 117.703125 71.695312 117.703125 72.617188 C 117.703125 73.375 117.585938 73.964844 117.351562 74.394531 C 117.128906 74.824219 116.804688 75.164062 116.375 75.410156 C 115.945312 75.644531 115.476562 75.761719 114.96875 75.761719 C 114.148438 75.761719 113.484375 75.503906 112.976562 74.980469 C 112.480469 74.449219 112.234375 73.691406 112.234375 72.714844 Z M 113.25 72.714844 C 113.25 73.457031 113.410156 74.019531 113.738281 74.394531 C 114.0625 74.761719 114.472656 74.941406 114.96875 74.941406 C 115.460938 74.941406 115.871094 74.761719 116.199219 74.394531 C 116.523438 74.019531 116.6875 73.445312 116.6875 72.675781 C 116.6875 71.960938 116.523438 71.414062 116.199219 71.035156 C 115.871094 70.660156 115.460938 70.46875 114.96875 70.46875 C 114.472656 70.46875 114.0625 70.660156 113.738281 71.035156 C 113.410156 71.402344 113.25 71.960938 113.25 72.714844 Z M 113.25 72.714844 "/>
<path style=" stroke:none;fill-rule:nonzero;fill:rgb(0%,0%,0%);fill-opacity:1;" d="M 118.492188 72.714844 C 118.492188 71.636719 118.789062 70.835938 119.390625 70.3125 C 119.898438 69.882812 120.507812 69.667969 121.226562 69.667969 C 122.03125 69.667969 122.691406 69.929688 123.199219 70.449219 C 123.707031 70.972656 123.960938 71.695312 123.960938 72.617188 C 123.960938 73.375 123.84375 73.964844 123.609375 74.394531 C 123.386719 74.824219 123.0625 75.164062 122.632812 75.410156 C 122.203125 75.644531 121.734375 75.761719 121.226562 75.761719 C 120.40625 75.761719 119.742188 75.503906 119.234375 74.980469 C 118.738281 74.449219 118.492188 73.691406 118.492188 72.714844 Z M 119.507812 72.714844 C 119.507812 73.457031 119.667969 74.019531 119.996094 74.394531 C 120.320312 74.761719 120.730469 74.941406 121.226562 74.941406 C 121.71875 74.941406 122.128906 74.761719 122.457031 74.394531 C 122.78125 74.019531 122.945312 73.445312 122.945312 72.675781 C 122.945312 71.960938 122.78125 71.414062 122.457031 71.035156 C 122.128906 70.660156 121.71875 70.46875 121.226562 70.46875 C 120.730469 70.46875 120.320312 70.660156 119.996094 71.035156 C 119.667969 71.402344 119.507812 71.960938 119.507812 72.714844 Z M 119.507812 72.714844 "/>
<path style=" stroke:none;fill-rule:nonzero;fill:rgb(0%,0%,0%);fill-opacity:1;" d="M 125.101562 75.625 L 125.101562 67.578125 L 126.078125 67.578125 L 126.078125 75.625 Z M 125.101562 75.625 "/>
<path style=" stroke:none;fill-rule:nonzero;fill:rgb(0%,0%,0%);fill-opacity:1;" d="M 127.621094 68.710938 L 127.621094 67.578125 L 128.617188 67.578125 L 128.617188 68.710938 Z M 127.621094 75.625 L 127.621094 69.785156 L 128.617188 69.785156 L 128.617188 75.625 Z M 127.621094 75.625 "/>
<path style=" stroke:none;fill-rule:nonzero;fill:rgb(0%,0%,0%);fill-opacity:1;" d="M 130.121094 75.625 L 130.121094 69.785156 L 131.019531 69.785156 L 131.019531 70.625 C 131.433594 69.992188 132.054688 69.667969 132.875 69.667969 C 133.226562 69.667969 133.542969 69.734375 133.832031 69.863281 C 134.128906 69.980469 134.347656 70.148438 134.496094 70.351562 C 134.636719 70.546875 134.738281 70.789062 134.808594 71.074219 C 134.847656 71.257812 134.867188 71.578125 134.867188 72.03125 L 134.867188 75.625 L 133.871094 75.625 L 133.871094 72.070312 C 133.871094 71.671875 133.832031 71.367188 133.753906 71.171875 C 133.675781 70.976562 133.539062 70.820312 133.34375 70.703125 C 133.148438 70.578125 132.917969 70.507812 132.660156 70.507812 C 132.238281 70.507812 131.878906 70.644531 131.566406 70.917969 C 131.261719 71.179688 131.117188 71.6875 131.117188 72.441406 L 131.117188 75.625 Z M 130.121094 75.625 "/>
<path style=" stroke:none;fill-rule:nonzero;fill:rgb(0%,0%,0%);fill-opacity:1;" d="M 136.203125 76.113281 L 137.160156 76.25 C 137.199219 76.546875 137.304688 76.761719 137.492188 76.894531 C 137.734375 77.074219 138.078125 77.167969 138.507812 77.167969 C 138.960938 77.167969 139.3125 77.074219 139.5625 76.894531 C 139.804688 76.710938 139.976562 76.453125 140.070312 76.132812 C 140.117188 75.921875 140.136719 75.503906 140.128906 74.863281 C 139.699219 75.371094 139.160156 75.625 138.527344 75.625 C 137.714844 75.625 137.089844 75.34375 136.652344 74.765625 C 136.222656 74.179688 136.007812 73.484375 136.007812 72.675781 C 136.007812 72.117188 136.105469 71.601562 136.300781 71.132812 C 136.503906 70.664062 136.796875 70.308594 137.179688 70.058594 C 137.554688 69.800781 138.003906 69.667969 138.527344 69.667969 C 139.214844 69.667969 139.78125 69.941406 140.226562 70.488281 L 140.226562 69.785156 L 141.144531 69.785156 L 141.144531 74.824219 C 141.144531 75.734375 141.046875 76.375 140.851562 76.757812 C 140.664062 77.132812 140.371094 77.429688 139.972656 77.65625 C 139.582031 77.875 139.09375 77.988281 138.507812 77.988281 C 137.804688 77.988281 137.238281 77.832031 136.808594 77.519531 C 136.386719 77.207031 136.1875 76.738281 136.203125 76.113281 Z M 137.023438 72.597656 C 137.023438 73.367188 137.167969 73.925781 137.472656 74.277344 C 137.769531 74.628906 138.144531 74.804688 138.605469 74.804688 C 139.058594 74.804688 139.445312 74.628906 139.757812 74.277344 C 140.070312 73.925781 140.226562 73.378906 140.226562 72.636719 C 140.226562 71.921875 140.058594 71.382812 139.738281 71.015625 C 139.425781 70.65625 139.042969 70.46875 138.605469 70.46875 C 138.160156 70.46875 137.785156 70.65625 137.472656 71.015625 C 137.167969 71.367188 137.023438 71.894531 137.023438 72.597656 Z M 137.023438 72.597656 "/>
<path style=" stroke:none;fill-rule:nonzero;fill:rgb(0%,0%,0%);fill-opacity:1;" d="M 183.660156 12.324219 C 183.660156 10.996094 184.015625 9.957031 184.734375 9.199219 C 185.449219 8.433594 186.375 8.046875 187.507812 8.046875 C 188.25 8.046875 188.917969 8.234375 189.519531 8.59375 C 190.117188 8.945312 190.574219 9.445312 190.886719 10.078125 C 191.199219 10.71875 191.355469 11.4375 191.355469 12.226562 C 191.355469 13.046875 191.191406 13.785156 190.867188 14.433594 C 190.539062 15.074219 190.070312 15.5625 189.460938 15.898438 C 188.859375 16.226562 188.210938 16.386719 187.507812 16.386719 C 186.75 16.386719 186.074219 16.207031 185.476562 15.839844 C 184.875 15.476562 184.421875 14.976562 184.109375 14.335938 C 183.808594 13.703125 183.660156 13.027344 183.660156 12.324219 Z M 184.753906 12.34375 C 184.753906 13.320312 185.011719 14.09375 185.535156 14.648438 C 186.054688 15.195312 186.710938 15.46875 187.507812 15.46875 C 188.300781 15.46875 188.957031 15.191406 189.480469 14.628906 C 190 14.070312 190.261719 13.273438 190.261719 12.226562 C 190.261719 11.578125 190.148438 11.011719 189.929688 10.527344 C 189.707031 10.035156 189.382812 9.648438 188.953125 9.375 C 188.523438 9.101562 188.046875 8.964844 187.527344 8.964844 C 186.769531 8.964844 186.121094 9.226562 185.574219 9.746094 C 185.027344 10.269531 184.753906 11.132812 184.753906 12.34375 Z M 184.753906 12.34375 "/>
<path style=" stroke:none;fill-rule:nonzero;fill:rgb(0%,0%,0%);fill-opacity:1;" d="M 196.433594 16.25 L 196.433594 15.390625 C 195.976562 16.054688 195.359375 16.386719 194.578125 16.386719 C 194.238281 16.386719 193.917969 16.320312 193.621094 16.191406 C 193.320312 16.050781 193.09375 15.878906 192.9375 15.683594 C 192.792969 15.488281 192.695312 15.25 192.644531 14.960938 C 192.605469 14.765625 192.585938 14.453125 192.585938 14.023438 L 192.585938 10.410156 L 193.5625 10.410156 L 193.5625 13.652344 C 193.5625 14.175781 193.585938 14.523438 193.640625 14.6875 C 193.691406 14.953125 193.816406 15.15625 194.011719 15.3125 C 194.21875 15.460938 194.472656 15.527344 194.773438 15.527344 C 195.070312 15.527344 195.351562 15.460938 195.613281 15.3125 C 195.871094 15.15625 196.054688 14.953125 196.160156 14.6875 C 196.261719 14.429688 196.316406 14.042969 196.316406 13.535156 L 196.316406 10.410156 L 197.3125 10.410156 L 197.3125 16.25 Z M 196.433594 16.25 "/>
<path style=" stroke:none;fill-rule:nonzero;fill:rgb(0%,0%,0%);fill-opacity:1;" d="M 201.027344 15.371094 L 201.164062 16.230469 C 200.875 16.292969 200.625 16.328125 200.421875 16.328125 C 200.054688 16.328125 199.777344 16.269531 199.582031 16.152344 C 199.386719 16.035156 199.238281 15.890625 199.152344 15.703125 C 199.074219 15.523438 199.035156 15.136719 199.035156 14.550781 L 199.035156 11.191406 L 198.3125 11.191406 L 198.3125 10.410156 L 199.035156 10.410156 L 199.035156 8.964844 L 200.03125 8.378906 L 200.03125 10.410156 L 201.027344 10.410156 L 201.027344 11.191406 L 200.03125 11.191406 L 200.03125 14.589844 C 200.03125 14.878906 200.039062 15.058594 200.070312 15.136719 C 200.109375 15.214844 200.167969 15.28125 200.246094 15.332031 C 200.324219 15.386719 200.429688 15.410156 200.578125 15.410156 C 200.695312 15.410156 200.839844 15.398438 201.027344 15.371094 Z M 201.027344 15.371094 "/>
<path style=" stroke:none;fill-rule:nonzero;fill:rgb(0%,0%,0%);fill-opacity:1;" d="M 201.984375 18.476562 L 201.984375 10.410156 L 202.882812 10.410156 L 202.882812 11.171875 C 203.089844 10.875 203.324219 10.65625 203.585938 10.507812 C 203.859375 10.367188 204.191406 10.292969 204.582031 10.292969 C 205.074219 10.292969 205.511719 10.425781 205.890625 10.683594 C 206.265625 10.933594 206.554688 11.289062 206.75 11.757812 C 206.945312 12.226562 207.042969 12.734375 207.042969 13.28125 C 207.042969 13.882812 206.929688 14.421875 206.710938 14.902344 C 206.5 15.386719 206.195312 15.757812 205.792969 16.015625 C 205.386719 16.257812 204.957031 16.386719 204.503906 16.386719 C 204.175781 16.386719 203.882812 16.3125 203.625 16.171875 C 203.363281 16.03125 203.148438 15.855469 202.980469 15.644531 L 202.980469 18.476562 Z M 202.882812 13.359375 C 202.882812 14.117188 203.03125 14.679688 203.332031 15.039062 C 203.644531 15.390625 204.015625 15.566406 204.445312 15.566406 C 204.875 15.566406 205.246094 15.386719 205.558594 15.019531 C 205.882812 14.644531 206.046875 14.0625 206.046875 13.28125 C 206.046875 12.539062 205.890625 11.988281 205.578125 11.621094 C 205.277344 11.246094 204.914062 11.054688 204.484375 11.054688 C 204.066406 11.054688 203.695312 11.257812 203.371094 11.660156 C 203.042969 12.050781 202.882812 12.617188 202.882812 13.359375 Z M 202.882812 13.359375 "/>
<path style=" stroke:none;fill-rule:nonzero;fill:rgb(0%,0%,0%);fill-opacity:1;" d="M 212.066406 16.25 L 212.066406 15.390625 C 211.605469 16.054688 210.992188 16.386719 210.210938 16.386719 C 209.867188 16.386719 209.550781 16.320312 209.253906 16.191406 C 208.949219 16.050781 208.726562 15.878906 208.570312 15.683594 C 208.421875 15.488281 208.324219 15.25 208.277344 14.960938 C 208.238281 14.765625 208.21875 14.453125 208.21875 14.023438 L 208.21875 10.410156 L 209.195312 10.410156 L 209.195312 13.652344 C 209.195312 14.175781 209.21875 14.523438 209.273438 14.6875 C 209.320312 14.953125 209.449219 15.15625 209.644531 15.3125 C 209.847656 15.460938 210.101562 15.527344 210.40625 15.527344 C 210.703125 15.527344 210.980469 15.460938 211.246094 15.3125 C 211.503906 15.15625 211.683594 14.953125 211.792969 14.6875 C 211.894531 14.429688 211.949219 14.042969 211.949219 13.535156 L 211.949219 10.410156 L 212.945312 10.410156 L 212.945312 16.25 Z M 212.066406 16.25 "/>
<path style=" stroke:none;fill-rule:nonzero;fill:rgb(0%,0%,0%);fill-opacity:1;" d="M 216.65625 15.371094 L 216.792969 16.230469 C 216.507812 16.292969 216.257812 16.328125 216.050781 16.328125 C 215.6875 16.328125 215.40625 16.269531 215.210938 16.152344 C 215.015625 16.035156 214.871094 15.890625 214.78125 15.703125 C 214.703125 15.523438 214.664062 15.136719 214.664062 14.550781 L 214.664062 11.191406 L 213.941406 11.191406 L 213.941406 10.410156 L 214.664062 10.410156 L 214.664062 8.964844 L 215.660156 8.378906 L 215.660156 10.410156 L 216.65625 10.410156 L 216.65625 11.191406 L 215.660156 11.191406 L 215.660156 14.589844 C 215.660156 14.878906 215.671875 15.058594 215.699219 15.136719 C 215.738281 15.214844 215.796875 15.28125 215.875 15.332031 C 215.953125 15.386719 216.0625 15.410156 216.207031 15.410156 C 216.324219 15.410156 216.472656 15.398438 216.65625 15.371094 Z M 216.65625 15.371094 "/>
<path style=" stroke:none;fill-rule:nonzero;fill:rgb(0%,0%,0%);fill-opacity:1;" d="M 23.542969 16.25 L 23.542969 8.203125 L 24.597656 8.203125 L 24.597656 16.25 Z M 23.542969 16.25 "/>
<path style=" stroke:none;fill-rule:nonzero;fill:rgb(0%,0%,0%);fill-opacity:1;" d="M 26.355469 16.25 L 26.355469 10.410156 L 27.253906 10.410156 L 27.253906 11.25 C 27.671875 10.617188 28.289062 10.292969 29.109375 10.292969 C 29.460938 10.292969 29.78125 10.359375 30.066406 10.488281 C 30.367188 10.605469 30.585938 10.773438 30.730469 10.976562 C 30.875 11.171875 30.976562 11.414062 31.042969 11.699219 C 31.082031 11.882812 31.101562 12.203125 31.101562 12.65625 L 31.101562 16.25 L 30.105469 16.25 L 30.105469 12.695312 C 30.105469 12.296875 30.066406 11.992188 29.988281 11.796875 C 29.910156 11.601562 29.773438 11.445312 29.578125 11.328125 C 29.382812 11.203125 29.15625 11.132812 28.894531 11.132812 C 28.476562 11.132812 28.113281 11.269531 27.800781 11.542969 C 27.5 11.804688 27.351562 12.3125 27.351562 13.066406 L 27.351562 16.25 Z M 26.355469 16.25 "/>
<path style=" stroke:none;fill-rule:nonzero;fill:rgb(0%,0%,0%);fill-opacity:1;" d="M 32.609375 18.476562 L 32.609375 10.410156 L 33.507812 10.410156 L 33.507812 11.171875 C 33.714844 10.875 33.949219 10.65625 34.210938 10.507812 C 34.484375 10.367188 34.816406 10.292969 35.207031 10.292969 C 35.699219 10.292969 36.136719 10.425781 36.515625 10.683594 C 36.890625 10.933594 37.179688 11.289062 37.375 11.757812 C 37.570312 12.226562 37.667969 12.734375 37.667969 13.28125 C 37.667969 13.882812 37.554688 14.421875 37.335938 14.902344 C 37.125 15.386719 36.820312 15.757812 36.417969 16.015625 C 36.011719 16.257812 35.582031 16.386719 35.128906 16.386719 C 34.800781 16.386719 34.507812 16.3125 34.25 16.171875 C 33.988281 16.03125 33.773438 15.855469 33.605469 15.644531 L 33.605469 18.476562 Z M 33.507812 13.359375 C 33.507812 14.117188 33.65625 14.679688 33.957031 15.039062 C 34.269531 15.390625 34.640625 15.566406 35.070312 15.566406 C 35.5 15.566406 35.871094 15.386719 36.183594 15.019531 C 36.507812 14.644531 36.671875 14.0625 36.671875 13.28125 C 36.671875 12.539062 36.515625 11.988281 36.203125 11.621094 C 35.902344 11.246094 35.539062 11.054688 35.109375 11.054688 C 34.691406 11.054688 34.320312 11.257812 33.996094 11.660156 C 33.667969 12.050781 33.507812 12.617188 33.507812 13.359375 Z M 33.507812 13.359375 "/>
<path style=" stroke:none;fill-rule:nonzero;fill:rgb(0%,0%,0%);fill-opacity:1;" d="M 42.691406 16.25 L 42.691406 15.390625 C 42.230469 16.054688 41.617188 16.386719 40.835938 16.386719 C 40.492188 16.386719 40.175781 16.320312 39.878906 16.191406 C 39.574219 16.050781 39.351562 15.878906 39.195312 15.683594 C 39.046875 15.488281 38.949219 15.25 38.902344 14.960938 C 38.863281 14.765625 38.84375 14.453125 38.84375 14.023438 L 38.84375 10.410156 L 39.820312 10.410156 L 39.820312 13.652344 C 39.820312 14.175781 39.84375 14.523438 39.898438 14.6875 C 39.945312 14.953125 40.074219 15.15625 40.269531 15.3125 C 40.472656 15.460938 40.726562 15.527344 41.03125 15.527344 C 41.328125 15.527344 41.605469 15.460938 41.871094 15.3125 C 42.128906 15.15625 42.308594 14.953125 42.417969 14.6875 C 42.519531 14.429688 42.574219 14.042969 42.574219 13.535156 L 42.574219 10.410156 L 43.570312 10.410156 L 43.570312 16.25 Z M 42.691406 16.25 "/>
<path style=" stroke:none;fill-rule:nonzero;fill:rgb(0%,0%,0%);fill-opacity:1;" d="M 47.28125 15.371094 L 47.417969 16.230469 C 47.132812 16.292969 46.882812 16.328125 46.675781 16.328125 C 46.3125 16.328125 46.03125 16.269531 45.835938 16.152344 C 45.640625 16.035156 45.496094 15.890625 45.40625 15.703125 C 45.328125 15.523438 45.289062 15.136719 45.289062 14.550781 L 45.289062 11.191406 L 44.566406 11.191406 L 44.566406 10.410156 L 45.289062 10.410156 L 45.289062 8.964844 L 46.285156 8.378906 L 46.285156 10.410156 L 47.28125 10.410156 L 47.28125 11.191406 L 46.285156 11.191406 L 46.285156 14.589844 C 46.285156 14.878906 46.296875 15.058594 46.324219 15.136719 C 46.363281 15.214844 46.421875 15.28125 46.5 15.332031 C 46.578125 15.386719 46.6875 15.410156 46.832031 15.410156 C 46.949219 15.410156 47.097656 15.398438 47.28125 15.371094 Z M 47.28125 15.371094 "/>
</g>
</svg>
